<?xml version="1.0" encoding="UTF-8"?>
<svg viewBox="-18.1 -18.1 46.2 36.2" height="36.2mm" width="46.2mm" xmlns:svgjs="http://svgjs.com/svgjs" xmlns:xlink="http://www.w3.org/1999/xlink" version="1.1" xmlns="http://www.w3.org/2000/svg" id="SvgjsSvg1143">
  <defs id="SvgjsDefs1144">
  </defs>
  <defs id="SvgjsDefs1144">
  </defs>
  <g id="SvgjsG1145">
    <g transform="matrix(1,0,0,1,20,0)" id="SvgjsG1146">
      <g fill="none" stroke-width="0.04" stroke="blue" id="SvgjsG1147">
      </g>
      <g fill="none" stroke-width="0.1" stroke="black" id="SvgjsG1148">
        <circle cy="0" cx="0" r="2.5" id="SvgjsCircle1149">
        </circle>
        <path d="M-3.757160131020142 4.548487041805518  L-3.74824276947715 4.403951766999982 L-3.734000138530185 4.266882200853049 L-3.7153095977683117 4.13933726059265 L-3.6928362985717547 4.0208607953211795 L-3.6674554325121176 3.9120515868962356 L-3.6391510378130376 3.810277574296169 L-3.6103042030280545 3.7211252517078703 L-3.5791733115563025 3.637124199356284 L-3.519228247397974 3.501558660656164 L-3.462270541366779 3.397149358754159 L-3.4154439021229757 3.3261941027322774 L-3.3924049500405298 3.296402446401305 L-3.299219377593134 3.231665728167747 L-3.2173178199631876 3.16526350412526 L-3.146666853144022 3.098024377216018 L-3.08717496872168 3.030771831629411 L-3.03872050991985 2.9643198081672035 L-3.0010994650451037 2.899459495320808 L-2.974079886359076 2.8369865062164794 L-2.9573871629562656 2.7776530966953903 L-2.950698902011246 2.72222624972092 L-2.9536419573615094 2.671423713118844 L-2.965810822164771 2.625939723304845 L-2.9932979880337385 2.5775928411665743 L-3.0890822913297797 2.461749293041994 L-3.1956171277810426 2.321751746555269 L-3.2958416316761805 2.1771694751006625 L-3.3764164154779728 2.0502755642329835 L-3.413903031397415 2.009193707813048 L-3.4534004902706616 1.9835651038214888 L-3.500807119631772 1.965067244685407 L-3.5555879699193613 1.9543003211801189 L-3.617175730892271 1.9518410126708494 L-3.6849405832672124 1.9582329437251071 L-3.758251948661158 1.9739697446730555 L-3.8364248298188954 1.999517868899666 L-3.9187698048503687 2.035315833744975 L-4.004550364063543 2.081730863219005 L-4.093011605109073 2.139104457604268 L-4.183375808345465 2.2077244574108255 L-4.218828784956328 2.220429674820599 L-4.30078147087713 2.243038075258634 L-4.417681516937111 2.264943824074282 L-4.565136049456743 2.2800629126518595 L-4.654645772186184 2.2837123971221267 L-4.748348831709118 2.283597784551093 L-4.853888208559429 2.2790669640902914 L-4.965215034209272 2.269581707597731 L-5.084837479904729 2.2543438440389103 L-5.211915621189334 2.2327060505365686 L-5.3466777402663475 2.203894772156863 L-5.486894571466432 2.167711830758922 L-5.608749956039035 2.1310801251184186 A6 6 0 0 1 -5.790191500633523 1.572660470360312 L-5.71314 1.4714000000000005 L-5.62097 1.3597100000000004 L-5.52888 1.2571900000000005 L-5.43879 1.1649900000000002 L-5.35097 1.0823500000000001 L-5.26648 1.0092400000000001 L-5.18376 0.9435400000000004 L-5.10802 0.8883700000000003 L-5.03346 0.8387100000000003 L-4.90528 0.7642700000000003 L-4.79783 0.7132800000000004 L-4.71824 0.6834000000000003 L-4.68209 0.6728400000000003 L-4.56865 0.6752400000000003 L-4.46336 0.6696600000000003 L-4.36668 0.6567900000000002 L-4.27902 0.6373500000000002 L-4.20076 0.6120700000000002 L-4.1322 0.5817100000000002 L-4.07362 0.5470500000000003 L-4.02524 0.5088600000000002 L-3.98725 0.4679500000000002 L-3.95977 0.4251200000000002 L-3.94288 0.38117000000000023 L-3.9367 0.32590000000000025 L-3.9461 0.17588000000000026 L-3.95 2.4186774283160225e-16 L-3.9461 -0.17587999999999976 L-3.9367 -0.3258999999999998 L-3.94288 -0.3811699999999998 L-3.95977 -0.4251199999999998 L-3.98725 -0.46794999999999976 L-4.02524 -0.5088599999999998 L-4.07362 -0.5470499999999998 L-4.1322 -0.5817099999999997 L-4.20076 -0.6120699999999998 L-4.27902 -0.6373499999999998 L-4.36668 -0.6567899999999998 L-4.46336 -0.6696599999999998 L-4.56865 -0.6752399999999996 L-4.68209 -0.6728399999999997 L-4.71824 -0.6833999999999997 L-4.79783 -0.7132799999999997 L-4.90528 -0.7642699999999997 L-5.03346 -0.8387099999999996 L-5.10802 -0.8883699999999997 L-5.18376 -0.9435399999999997 L-5.26648 -1.0092399999999997 L-5.35097 -1.0823499999999997 L-5.43879 -1.1649899999999997 L-5.52888 -1.2571899999999996 L-5.62097 -1.3597099999999995 L-5.71314 -1.4713999999999996 L-5.790191500633523 -1.572660470360311 A6 6 0 0 1 -5.608749956039035 -2.1310801251184177 L-5.486894571466432 -2.167711830758922 L-5.3466777402663475 -2.203894772156862 L-5.211915621189333 -2.232706050536568 L-5.084837479904729 -2.2543438440389094 L-4.965215034209272 -2.2695817075977303 L-4.853888208559429 -2.2790669640902914 L-4.748348831709118 -2.283597784551092 L-4.654645772186183 -2.283712397122126 L-4.565136049456743 -2.280062912651859 L-4.417681516937111 -2.264943824074281 L-4.30078147087713 -2.2430380752586334 L-4.218828784956328 -2.2204296748205987 L-4.183375808345465 -2.207724457410825 L-4.093011605109073 -2.1391044576042675 L-4.004550364063543 -2.081730863219005 L-3.9187698048503687 -2.035315833744974 L-3.8364248298188954 -1.9995178688996655 L-3.758251948661158 -1.973969744673055 L-3.6849405832672124 -1.9582329437251067 L-3.617175730892271 -1.951841012670849 L-3.5555879699193613 -1.9543003211801184 L-3.500807119631772 -1.9650672446854065 L-3.4534004902706616 -1.9835651038214883 L-3.413903031397415 -2.0091937078130475 L-3.3764164154779728 -2.050275564232983 L-3.29584163167618 -2.177169475100662 L-3.1956171277810426 -2.3217517465552686 L-3.08908229132978 -2.4617492930419935 L-2.9932979880337385 -2.577592841166574 L-2.965810822164771 -2.6259397233048447 L-2.9536419573615094 -2.6714237131188434 L-2.950698902011246 -2.7222262497209195 L-2.9573871629562656 -2.77765309669539 L-2.974079886359076 -2.836986506216479 L-3.0010994650451037 -2.8994594953208077 L-3.03872050991985 -2.964319808167203 L-3.08717496872168 -3.0307718316294108 L-3.146666853144022 -3.098024377216018 L-3.2173178199631876 -3.1652635041252593 L-3.299219377593134 -3.2316657281677466 L-3.3924049500405298 -3.2964024464013044 L-3.4154439021229757 -3.326194102732277 L-3.462270541366779 -3.3971493587541586 L-3.519228247397974 -3.5015586606561633 L-3.5791733115563025 -3.6371241993562835 L-3.6103042030280545 -3.7211252517078703 L-3.639151037813038 -3.810277574296168 L-3.6674554325121176 -3.9120515868962347 L-3.692836298571755 -4.020860795321179 L-3.715309597768312 -4.139337260592649 L-3.734000138530185 -4.266882200853049 L-3.7482427694771503 -4.403951766999982 L-3.757160131020142 -4.548487041805517 L-3.759976693356765 -4.675698218924799 A6 6 0 0 1 -3.284956562637114 -5.020820545551291 L-3.1648419093199767 -4.978831419983195 L-3.0301363106434316 -4.925686648978009 L-2.9041766215808638 -4.869784276655708 L-2.788649869755212 -4.812594961984048 L-2.6829166868025727 -4.754610343138154 L-2.5872760990414942 -4.696847810535128 L-2.499229800146207 -4.638478832037627 L-2.423355064988245 -4.583494279073098 L-2.3530852912884317 -4.527929289158791 L-2.2426788458764397 -4.42902608996135 L-2.1609805980649615 -4.342591843828615 L-2.10796836677576 -4.276130683488606 L-2.086754245617029 -4.245013209885136 L-2.0539818934142433 -4.136383717890114 L-2.016138598715578 -4.0379712921180095 L-1.9740227383346896 -3.9500001968401985 L-1.9284457699310038 -3.872637872992415 L-1.880219391219279 -3.806020139644955 L-1.8301591102502117 -3.750197460836983 L-1.7790932758649374 -3.7051950991374483 L-1.7278221853197655 -3.6709843438942684 L-1.6771749076218265 -3.6474955920800944 L-1.6279493700234815 -3.634595756881382 L-1.5809311390973169 -3.6321137092239364 L-1.5264565204164464 -3.6433155492323355 L-1.3866837815889719 -3.6986142099816397 L-1.2206171277810427 -3.7566732393658566 L-1.0521401414169889 -3.807314027922971 L-0.9065578830952652 -3.8447328261659264 L-0.8559027144648694 -3.8676897247157336 L-0.8193230776086902 -3.8973343661787374 L-0.7870811140211923 -3.9367045971156074 L-0.759912947555862 -3.9854771194095395 L-0.7385423413864098 -4.043290592683078 L-0.7236809380621043 -4.1097140124326845 L-0.7159930673617297 -4.184300203139103 L-0.7161340286095718 -4.26654183572216 L-0.7247339196597018 -4.3559187403112425 L-0.742369585311153 -4.451843933024263 L-0.7695990892879645 -4.5537049884535925 L-0.8069365127689667 -4.660851198875615 L-0.8080643203035444 -4.698495111400284 L-0.8042414141789472 -4.78342312732414 L-0.7889509184586456 -4.901370926543232 L-0.7577640697246151 -5.046280575863215 L-0.7335749102259937 -5.132537133658842 L-0.7045100693759488 -5.221618621782703 L-0.6675875420300528 -5.320592433341072 L-0.6241646459784536 -5.423539430861602 L-0.5727072079178299 -5.532598378537789 L-0.5128591381386556 -5.646770426972188 L-0.44381419910006525 -5.766033643821129 L-0.3660727931665986 -5.888206631029791 L-0.29357858612516297 -5.9927781689973605 A6 6 0 0 1 0.2935785861251614 -5.992778168997361 L0.36607279316659724 -5.888206631029791 L0.44381419910006414 -5.766033643821129 L0.5128591381386542 -5.646770426972189 L0.5727072079178286 -5.532598378537788 L0.6241646459784522 -5.423539430861602 L0.6675875420300516 -5.320592433341073 L0.7045100693759474 -5.221618621782704 L0.7335749102259925 -5.132537133658842 L0.7577640697246139 -5.046280575863216 L0.7889509184586444 -4.901370926543233 L0.8042414141789463 -4.78342312732414 L0.8080643203035431 -4.698495111400284 L0.8069365127689655 -4.660851198875615 L0.7695990892879633 -4.5537049884535925 L0.742369585311152 -4.451843933024263 L0.7247339196597008 -4.355918740311243 L0.7161340286095708 -4.266541835722161 L0.7159930673617287 -4.184300203139103 L0.7236809380621033 -4.1097140124326845 L0.7385423413864088 -4.043290592683078 L0.759912947555861 -3.98547711940954 L0.7870811140211913 -3.936704597115608 L0.8193230776086893 -3.897334366178738 L0.8559027144648685 -3.867689724715734 L0.9065578830952643 -3.844732826165927 L1.052140141416988 -3.8073140279229714 L1.2206171277810418 -3.756673239365857 L1.386683781588971 -3.69861420998164 L1.5264565204164455 -3.643315549232336 L1.580931139097316 -3.632113709223937 L1.6279493700234806 -3.6345957568813825 L1.6771749076218256 -3.647495592080095 L1.7278221853197648 -3.670984343894269 L1.7790932758649367 -3.7051950991374487 L1.8301591102502108 -3.7501974608369837 L1.8802193912192782 -3.8060201396449553 L1.9284457699310031 -3.872637872992416 L1.9740227383346887 -3.9500001968402 L2.0161385987155773 -4.0379712921180095 L2.0539818934142424 -4.136383717890114 L2.086754245617028 -4.245013209885136 L2.107968366775759 -4.276130683488606 L2.1609805980649606 -4.342591843828615 L2.2426788458764384 -4.429026089961351 L2.3530852912884304 -4.5279292891587914 L2.423355064988244 -4.583494279073098 L2.499229800146206 -4.638478832037628 L2.587276099041493 -4.696847810535129 L2.682916686802571 -4.754610343138154 L2.7886498697552105 -4.812594961984049 L2.904176621580863 -4.869784276655709 L3.0301363106434307 -4.925686648978011 L3.1648419093199753 -4.978831419983197 L3.2849565626371127 -5.020820545551292 A6 6 0 0 1 3.7599766933567635 -4.6756982189248 L3.7571601310201417 -4.548487041805519 L3.748242769477149 -4.403951766999983 L3.7340001385301838 -4.26688220085305 L3.7153095977683117 -4.139337260592651 L3.6928362985717538 -4.02086079532118 L3.6674554325121163 -3.912051586896236 L3.6391510378130367 -3.810277574296169 L3.6103042030280537 -3.721125251707871 L3.5791733115563025 -3.6371241993562844 L3.5192282473979737 -3.5015586606561646 L3.4622705413667783 -3.3971493587541595 L3.415443902122975 -3.326194102732278 L3.3924049500405293 -3.2964024464013058 L3.2992193775931336 -3.2316657281677474 L3.217317819963187 -3.1652635041252606 L3.1466668531440214 -3.0980243772160185 L3.0871749687216794 -3.0307718316294117 L3.0387205099198495 -2.964319808167204 L3.001099465045103 -2.8994594953208086 L2.9740798863590756 -2.83698650621648 L2.957387162956265 -2.7776530966953907 L2.9506989020112457 -2.7222262497209204 L2.953641957361509 -2.6714237131188443 L2.9658108221647703 -2.6259397233048456 L2.993297988033738 -2.5775928411665747 L3.0890822913297793 -2.4617492930419944 L3.195617127781042 -2.3217517465552695 L3.29584163167618 -2.177169475100663 L3.3764164154779723 -2.050275564232984 L3.413903031397415 -2.0091937078130484 L3.453400490270661 -1.9835651038214892 L3.5008071196317716 -1.9650672446854074 L3.555587969919361 -1.9543003211801193 L3.6171757308922707 -1.95184101267085 L3.6849405832672124 -1.9582329437251076 L3.7582519486611576 -1.973969744673056 L3.836424829818895 -1.9995178688996664 L3.9187698048503683 -2.0353158337449755 L4.004550364063542 -2.0817308632190064 L4.093011605109073 -2.1391044576042684 L4.183375808345465 -2.2077244574108263 L4.218828784956328 -2.2204296748205996 L4.300781470877129 -2.2430380752586343 L4.417681516937111 -2.2649438240742823 L4.565136049456743 -2.28006291265186 L4.654645772186182 -2.283712397122127 L4.748348831709118 -2.2835977845510937 L4.853888208559428 -2.2790669640902927 L4.965215034209271 -2.2695817075977316 L5.084837479904729 -2.2543438440389107 L5.211915621189333 -2.232706050536569 L5.346677740266347 -2.203894772156864 L5.486894571466432 -2.167711830758923 L5.608749956039034 -2.1310801251184195 A6 6 0 0 1 5.790191500633523 -1.5726604703603126 L5.71314 -1.4714000000000012 L5.62097 -1.359710000000001 L5.52888 -1.2571900000000011 L5.43879 -1.1649900000000009 L5.35097 -1.0823500000000008 L5.26648 -1.0092400000000008 L5.18376 -0.943540000000001 L5.10802 -0.8883700000000009 L5.03346 -0.8387100000000008 L4.90528 -0.7642700000000009 L4.79783 -0.7132800000000009 L4.71824 -0.6834000000000009 L4.68209 -0.6728400000000009 L4.56865 -0.6752400000000008 L4.46336 -0.6696600000000008 L4.36668 -0.6567900000000008 L4.27902 -0.6373500000000007 L4.20076 -0.6120700000000008 L4.1322 -0.5817100000000007 L4.07362 -0.5470500000000008 L4.02524 -0.5088600000000008 L3.98725 -0.4679500000000007 L3.95977 -0.4251200000000007 L3.94288 -0.38117000000000073 L3.9367 -0.32590000000000074 L3.9461 -0.17588000000000073 L3.95 -7.256032284948068e-16 L3.9461 0.1758799999999993 L3.9367 0.3258999999999993 L3.94288 0.3811699999999993 L3.95977 0.4251199999999993 L3.98725 0.46794999999999926 L4.02524 0.5088599999999992 L4.07362 0.5470499999999993 L4.1322 0.5817099999999992 L4.20076 0.6120699999999992 L4.27902 0.6373499999999992 L4.36668 0.6567899999999992 L4.46336 0.6696599999999993 L4.56865 0.6752399999999991 L4.68209 0.6728399999999991 L4.71824 0.6833999999999991 L4.79783 0.7132799999999991 L4.90528 0.7642699999999991 L5.03346 0.8387099999999991 L5.10802 0.8883699999999991 L5.18376 0.943539999999999 L5.26648 1.009239999999999 L5.35097 1.082349999999999 L5.43879 1.164989999999999 L5.52888 1.257189999999999 L5.62097 1.3597099999999989 L5.71314 1.471399999999999 L5.790191500633523 1.5726604703603104 A6 6 0 0 1 5.608749956039035 2.1310801251184173 L5.486894571466433 2.167711830758921 L5.3466777402663475 2.2038947721568616 L5.211915621189334 2.2327060505365672 L5.08483747990473 2.2543438440389085 L4.965215034209271 2.2695817075977294 L4.853888208559429 2.2790669640902905 L4.7483488317091185 2.2835977845510915 L4.654645772186184 2.283712397122125 L4.5651360494567435 2.2800629126518586 L4.417681516937111 2.2649438240742805 L4.30078147087713 2.243038075258633 L4.218828784956329 2.2204296748205983 L4.183375808345465 2.2077244574108246 L4.093011605109074 2.1391044576042666 L4.004550364063543 2.081730863219004 L3.918769804850369 2.0353158337449733 L3.8364248298188954 1.9995178688996644 L3.7582519486611585 1.9739697446730544 L3.684940583267213 1.958232943725106 L3.6171757308922716 1.9518410126708485 L3.5555879699193618 1.954300321180118 L3.500807119631772 1.9650672446854058 L3.453400490270662 1.9835651038214877 L3.4139030313974152 2.009193707813047 L3.3764164154779728 2.0502755642329826 L3.2958416316761805 2.1771694751006616 L3.195617127781043 2.321751746555268 L3.0890822913297806 2.461749293041993 L2.9932979880337394 2.5775928411665734 L2.9658108221647717 2.6259397233048443 L2.95364195736151 2.671423713118843 L2.950698902011247 2.722226249720919 L2.957387162956266 2.7776530966953894 L2.9740798863590765 2.836986506216479 L3.001099465045104 2.8994594953208077 L3.0387205099198504 2.9643198081672026 L3.0871749687216807 3.0307718316294103 L3.1466668531440223 3.098024377216017 L3.2173178199631884 3.1652635041252593 L3.2992193775931344 3.2316657281677457 L3.39240495004053 3.296402446401304 L3.4154439021229765 3.3261941027322766 L3.46227054136678 3.397149358754158 L3.5192282473979746 3.501558660656163 L3.5791733115563034 3.637124199356283 L3.610304203028056 3.7211252517078695 L3.639151037813039 3.8102775742961676 L3.6674554325121185 3.9120515868962347 L3.692836298571755 4.020860795321179 L3.715309597768313 4.139337260592649 L3.7340001385301864 4.266882200853048 L3.7482427694771503 4.403951766999981 L3.757160131020143 4.548487041805517 L3.759976693356765 4.675698218924799 A6 6 0 0 1 3.284956562637115 5.020820545551291 L3.1648419093199776 4.978831419983195 L3.030136310643433 4.925686648978009 L2.9041766215808646 4.869784276655707 L2.7886498697552127 4.812594961984048 L2.6829166868025736 4.754610343138154 L2.587276099041495 4.696847810535128 L2.499229800146208 4.638478832037627 L2.423355064988246 4.583494279073098 L2.3530852912884326 4.527929289158791 L2.2426788458764406 4.42902608996135 L2.1609805980649623 4.342591843828615 L2.107968366775761 4.276130683488606 L2.08675424561703 4.245013209885135 L2.053981893414244 4.136383717890114 L2.016138598715579 4.037971292118009 L1.9740227383346902 3.9500001968401985 L1.9284457699310047 3.872637872992415 L1.88021939121928 3.8060201396449544 L1.8301591102502126 3.750197460836983 L1.779093275864938 3.7051950991374483 L1.7278221853197664 3.670984343894268 L1.677174907621827 3.647495592080094 L1.6279493700234822 3.634595756881382 L1.5809311390973175 3.6321137092239364 L1.526456520416447 3.6433155492323355 L1.3866837815889728 3.6986142099816397 L1.2206171277810434 3.7566732393658566 L1.0521401414169893 3.807314027922971 L0.9065578830952659 3.8447328261659264 L0.8559027144648701 3.8676897247157336 L0.8193230776086908 3.8973343661787374 L0.787081114021193 3.936704597115608 L0.7599129475558627 3.98547711940954 L0.7385423413864105 4.043290592683078 L0.7236809380621052 4.1097140124326845 L0.7159930673617306 4.184300203139103 L0.7161340286095724 4.266541835722161 L0.7247339196597025 4.3559187403112425 L0.7423695853111539 4.451843933024264 L0.7695990892879652 4.5537049884535925 L0.8069365127689676 4.660851198875616 L0.8080643203035452 4.698495111400284 L0.8042414141789481 4.78342312732414 L0.7889509184586465 4.901370926543232 L0.757764069724616 5.046280575863215 L0.7335749102259946 5.132537133658842 L0.7045100693759497 5.221618621782703 L0.6675875420300537 5.320592433341072 L0.6241646459784544 5.423539430861602 L0.5727072079178308 5.532598378537789 L0.5128591381386565 5.646770426972189 L0.44381419910006636 5.766033643821129 L0.36607279316659946 5.888206631029791 L0.29357858612516385 5.9927781689973605 A6 6 0 0 1 -0.29357858612516075 5.9927781689973605 L-0.3660727931665966 5.888206631029791 L-0.4438141991000635 5.766033643821129 L-0.5128591381386538 5.646770426972189 L-0.5727072079178279 5.532598378537788 L-0.6241646459784518 5.423539430861602 L-0.6675875420300509 5.320592433341073 L-0.704510069375947 5.221618621782704 L-0.7335749102259919 5.132537133658842 L-0.7577640697246132 5.046280575863216 L-0.788950918458644 4.901370926543233 L-0.8042414141789457 4.78342312732414 L-0.8080643203035427 4.698495111400284 L-0.806936512768965 4.660851198875615 L-0.7695990892879628 4.5537049884535925 L-0.7423695853111516 4.451843933024263 L-0.7247339196597001 4.355918740311243 L-0.7161340286095703 4.266541835722161 L-0.7159930673617283 4.184300203139103 L-0.7236809380621029 4.1097140124326845 L-0.7385423413864084 4.043290592683078 L-0.7599129475558606 3.98547711940954 L-0.7870811140211909 3.936704597115608 L-0.8193230776086888 3.897334366178738 L-0.8559027144648681 3.867689724715734 L-0.9065578830952639 3.844732826165927 L-1.0521401414169875 3.8073140279229714 L-1.2206171277810414 3.756673239365857 L-1.3866837815889705 3.69861420998164 L-1.526456520416445 3.643315549232336 L-1.5809311390973155 3.632113709223937 L-1.6279493700234802 3.6345957568813825 L-1.6771749076218252 3.647495592080095 L-1.7278221853197644 3.670984343894269 L-1.7790932758649363 3.705195099137449 L-1.8301591102502104 3.7501974608369837 L-1.8802193912192777 3.8060201396449553 L-1.9284457699310027 3.8726378729924162 L-1.9740227383346882 3.9500001968402 L-2.016138598715577 4.0379712921180095 L-2.053981893414242 4.136383717890114 L-2.0867542456170276 4.245013209885136 L-2.1079683667757587 4.276130683488606 L-2.16098059806496 4.342591843828615 L-2.242678845876438 4.429026089961351 L-2.35308529128843 4.5279292891587914 L-2.423355064988243 4.583494279073098 L-2.499229800146206 4.638478832037628 L-2.5872760990414925 4.696847810535129 L-2.682916686802571 4.754610343138154 L-2.7886498697552096 4.812594961984049 L-2.904176621580862 4.869784276655709 L-3.03013631064343 4.925686648978011 L-3.164841909319975 4.978831419983197 L-3.284956562637112 5.020820545551293 A6 6 0 0 1 -3.759976693356765 4.6756982189248 Z" id="SvgjsPath1150">
        </path>
      </g>
    </g>
  </g>
</svg>
